<svg xmlns="http://www.w3.org/2000/svg" width="900" height="1120">
<rect width="100%" height="100%" fill="white"/>
<text x="20" y="28" font-size="18">MEASURED — Actual lossless BPB</text>
<text x="20" y="71" font-size="12">gzip-9</text>
<rect x="270" y="55" width="260.72" height="20" fill="#3978c5"/>
<text x="540.72" y="70" font-size="11">3.5509</text>
<text x="20" y="106" font-size="12">bzip2-9</text>
<rect x="270" y="90" width="270.28" height="20" fill="#3978c5"/>
<text x="550.28" y="105" font-size="11">3.6812</text>
<text x="20" y="141" font-size="12">lzma-6</text>
<rect x="270" y="125" width="270.72" height="20" fill="#3978c5"/>
<text x="550.72" y="140" font-size="11">3.6871</text>
<text x="20" y="176" font-size="12">brotli-6</text>
<rect x="270" y="160" width="242.02" height="20" fill="#3978c5"/>
<text x="522.02" y="175" font-size="11">3.2963</text>
<text x="20" y="211" font-size="12">zstd-3</text>
<rect x="270" y="195" width="268.69" height="20" fill="#3978c5"/>
<text x="548.69" y="210" font-size="11">3.6595</text>
<text x="20" y="246" font-size="12">xai-static</text>
<rect x="270" y="230" width="432.75" height="20" fill="#3978c5"/>
<text x="712.75" y="245" font-size="11">5.8939</text>
<text x="20" y="281" font-size="12">gzip-9</text>
<rect x="270" y="265" width="176.10" height="20" fill="#3978c5"/>
<text x="456.10" y="280" font-size="11">2.3984</text>
<text x="20" y="316" font-size="12">bzip2-9</text>
<rect x="270" y="300" width="179.76" height="20" fill="#3978c5"/>
<text x="459.76" y="315" font-size="11">2.4482</text>
<text x="20" y="351" font-size="12">lzma-6</text>
<rect x="270" y="335" width="177.25" height="20" fill="#3978c5"/>
<text x="457.25" y="350" font-size="11">2.4141</text>
<text x="20" y="386" font-size="12">brotli-6</text>
<rect x="270" y="370" width="167.93" height="20" fill="#3978c5"/>
<text x="447.93" y="385" font-size="11">2.2871</text>
<text x="20" y="421" font-size="12">zstd-3</text>
<rect x="270" y="405" width="187.21" height="20" fill="#3978c5"/>
<text x="467.21" y="420" font-size="11">2.5498</text>
<text x="20" y="456" font-size="12">xai-static</text>
<rect x="270" y="440" width="392.14" height="20" fill="#3978c5"/>
<text x="672.14" y="455" font-size="11">5.3408</text>
<text x="20" y="491" font-size="12">gzip-9</text>
<rect x="270" y="475" width="197.54" height="20" fill="#3978c5"/>
<text x="477.54" y="490" font-size="11">2.6904</text>
<text x="20" y="526" font-size="12">bzip2-9</text>
<rect x="270" y="510" width="214.15" height="20" fill="#3978c5"/>
<text x="494.15" y="525" font-size="11">2.9167</text>
<text x="20" y="561" font-size="12">lzma-6</text>
<rect x="270" y="545" width="205.92" height="20" fill="#3978c5"/>
<text x="485.92" y="560" font-size="11">2.8046</text>
<text x="20" y="596" font-size="12">brotli-6</text>
<rect x="270" y="580" width="182.87" height="20" fill="#3978c5"/>
<text x="462.87" y="595" font-size="11">2.4907</text>
<text x="20" y="631" font-size="12">zstd-3</text>
<rect x="270" y="615" width="209.21" height="20" fill="#3978c5"/>
<text x="489.21" y="630" font-size="11">2.8494</text>
<text x="20" y="666" font-size="12">xai-static</text>
<rect x="270" y="650" width="428.60" height="20" fill="#3978c5"/>
<text x="708.60" y="665" font-size="11">5.8375</text>
<text x="20" y="701" font-size="12">gzip-9</text>
<rect x="270" y="685" width="166.06" height="20" fill="#3978c5"/>
<text x="446.06" y="700" font-size="11">2.2617</text>
<text x="20" y="736" font-size="12">bzip2-9</text>
<rect x="270" y="720" width="158.10" height="20" fill="#3978c5"/>
<text x="438.10" y="735" font-size="11">2.1533</text>
<text x="20" y="771" font-size="12">lzma-6</text>
<rect x="270" y="755" width="160.61" height="20" fill="#3978c5"/>
<text x="440.61" y="770" font-size="11">2.1875</text>
<text x="20" y="806" font-size="12">brotli-6</text>
<rect x="270" y="790" width="152.01" height="20" fill="#3978c5"/>
<text x="432.01" y="805" font-size="11">2.0703</text>
<text x="20" y="841" font-size="12">zstd-3</text>
<rect x="270" y="825" width="162.55" height="20" fill="#3978c5"/>
<text x="442.55" y="840" font-size="11">2.2139</text>
<text x="20" y="876" font-size="12">xai-static</text>
<rect x="270" y="860" width="420.46" height="20" fill="#3978c5"/>
<text x="700.46" y="875" font-size="11">5.7266</text>
<text x="20" y="911" font-size="12">gzip-9</text>
<rect x="270" y="895" width="259.27" height="20" fill="#3978c5"/>
<text x="539.27" y="910" font-size="11">3.5312</text>
<text x="20" y="946" font-size="12">bzip2-9</text>
<rect x="270" y="930" width="280.21" height="20" fill="#3978c5"/>
<text x="560.21" y="945" font-size="11">3.8164</text>
<text x="20" y="981" font-size="12">lzma-6</text>
<rect x="270" y="965" width="284.51" height="20" fill="#3978c5"/>
<text x="564.51" y="980" font-size="11">3.875</text>
<text x="20" y="1016" font-size="12">brotli-6</text>
<rect x="270" y="1000" width="236.62" height="20" fill="#3978c5"/>
<text x="516.62" y="1015" font-size="11">3.2227</text>
<text x="20" y="1051" font-size="12">zstd-3</text>
<rect x="270" y="1035" width="266.73" height="20" fill="#3978c5"/>
<text x="546.73" y="1050" font-size="11">3.6328</text>
<text x="20" y="1086" font-size="12">xai-gru-rans</text>
<rect x="270" y="1070" width="600.00" height="20" fill="#3978c5"/>
<text x="880.00" y="1085" font-size="11">8.1719</text>
</svg>